<?xml version="1.0" encoding="UTF-8" standalone="no"?>
<!-- Created with Inkscape (http://www.inkscape.org/) -->

<svg
   xmlns:dc="http://purl.org/dc/elements/1.1/"
   xmlns:cc="http://creativecommons.org/ns#"
   xmlns:rdf="http://www.w3.org/1999/02/22-rdf-syntax-ns#"
   xmlns:svg="http://www.w3.org/2000/svg"
   xmlns="http://www.w3.org/2000/svg"
   version="1.1"
   width="210mm"
   height="297mm"
   id="svg3013">
  <defs
     id="defs3015" />
  <metadata
     id="metadata3018">
    <rdf:RDF>
      <cc:Work
         rdf:about="">
        <dc:format>image/svg+xml</dc:format>
        <dc:type
           rdf:resource="http://purl.org/dc/dcmitype/StillImage" />
        <dc:title></dc:title>
      </cc:Work>
    </rdf:RDF>
  </metadata>
  <g
     id="layer1">
    <path
       d="m 45.714286,296.6479 c 6.114761,-0.26671 12.022659,1.19014 17.857143,2.85714 0.511912,0.14626 0.934253,0.51656 1.428571,0.71428 0.699072,0.27963 1.443786,0.43466 2.142857,0.71429 1.482955,0.59318 2.857143,1.42857 4.285715,2.14286 0.47619,0.23809 1.002653,0.39484 1.428571,0.71428 2.183652,1.63774 1.12399,1.68599 2.857143,4.28572 1.638917,2.45837 2.503073,3.21736 4.285714,5 0.714286,0.71428 1.555718,1.32086 2.142857,2.14285 1.692134,2.36899 1.143583,2.66836 2.142857,5 0.419443,0.97871 0.900286,1.93265 1.428572,2.85715 0.425918,0.74535 0.952381,1.42857 1.428571,2.14285 1.421418,2.13213 2.967487,4.23153 4.285715,6.42858 0.273916,0.45652 0.440369,0.97204 0.714285,1.42857 0.441677,0.73612 1.090406,1.3538 1.428572,2.14285 0.386707,0.90232 0.169741,2.04033 0.714285,2.85715 0.476191,0.71428 1.535831,0.82154 2.142858,1.42857 0.607026,0.60703 0.95238,1.42857 1.428571,2.14286 0.47619,0.71428 0.952381,1.42857 1.428571,2.14285 0.476191,0.71429 0.892296,1.47251 1.428576,2.14286 0.42069,0.52586 1.05501,0.86824 1.42857,1.42857 0.59064,0.88596 0.83793,1.97118 1.42857,2.85714 0.37355,0.56034 1.02451,0.88983 1.42857,1.42858 0.31944,0.42591 0.47619,0.95238 0.71429,1.42857 0.56364,1.12729 1.28091,2.70948 2.14285,3.57143 1.07803,1.07802 2.35179,1.94241 3.57143,2.85714 0.68677,0.51508 1.53583,0.82154 2.14286,1.42857 5.26549,7.89823 -1.53567,-1.53567 2.85714,2.85714 0.37646,0.37646 0.28837,1.10914 0.71429,1.42857 0.60234,0.45176 1.46942,0.37757 2.14285,0.71429 0.76784,0.38392 1.40673,0.9869 2.14286,1.42857 0.45653,0.27392 1.01284,0.3817 1.42857,0.71429 0.7888,0.63103 1.35406,1.51182 2.14286,2.14285 0.41573,0.33259 0.95238,0.4762 1.42857,0.71429 3.35026,1.67513 -0.84179,-0.33672 3.57143,1.42857 0.49432,0.19773 0.91207,0.58516 1.42857,0.71429 0.46197,0.11549 0.97682,-0.15059 1.42857,0 0.31944,0.10648 0.39485,0.6078 0.71429,0.71428 0.45175,0.15059 0.97682,-0.15058 1.42857,0 0.31944,0.10648 0.39485,0.60781 0.71429,0.71429 0.67763,0.22588 1.46522,-0.22588 2.14285,0 0.50508,0.16836 0.9235,0.54593 1.42857,0.71428 0.22588,0.0753 0.47619,0 0.71429,0 0.47619,0 0.95238,0 1.42857,0 2.14286,0 4.28572,0 6.42857,0 3.09524,0 6.19048,0 9.28572,0 0.95238,0 1.90476,0 2.85714,0 0.47619,0 0.96163,0.0934 1.42857,0 0.65479,-0.13095 2.87879,-0.90909 3.57143,-1.42857 0.80812,-0.60609 1.30236,-1.58252 2.14286,-2.14285 1.87237,-1.24825 1.24825,-0.26698 3.57143,-1.42858 0.38148,-0.19074 1.76681,-1.76681 2.14285,-2.14285 0.71429,-0.71429 1.42857,-1.42857 2.14286,-2.14286 0.2381,-0.23809 0.52751,-0.43412 0.71429,-0.71429 0.59064,-0.88596 0.78969,-2.0053 1.42857,-2.85714 0.40406,-0.53875 1.08209,-0.8511 1.42857,-1.42857 0.38737,-0.64563 0.47619,-1.42857 0.71428,-2.14286 0.71429,-1.42857 1.29635,-2.9313 2.14286,-4.28571 0.35692,-0.57107 1.02451,-0.88982 1.42857,-1.42857 0.31944,-0.42592 0.39485,-1.00266 0.71429,-1.42857 0.40406,-0.53875 1.1274,-0.82624 1.42857,-1.42858 0.43903,-0.87805 0.16974,-2.04032 0.71429,-2.85714 0.47619,-0.71428 1.4725,-0.89229 2.14285,-1.42857 3.53426,-2.82741 -0.85541,0.14112 2.85715,-3.57143 0.37646,-0.37646 0.97204,-0.44037 1.42857,-0.71428 0.73612,-0.44168 1.40673,-0.9869 2.14285,-1.42858 0.45653,-0.27391 0.97205,-0.44036 1.42858,-0.71428 0.73612,-0.44168 1.40673,-0.9869 2.14285,-1.42857 0.45653,-0.27392 1.00266,-0.39485 1.42857,-0.71429 0.53875,-0.40406 0.95239,-0.95238 1.42858,-1.42857 0.95238,-0.71429 1.8666,-1.4825 2.85714,-2.14286 1.25634,-0.83756 2.11944,-0.84777 3.57143,-1.42857 4.89667,-1.95867 -3.86375,0.89985 4.28571,-1.42857 1.84494,-0.52713 3.01514,-1.18046 5,-1.42857 0.94503,-0.11813 1.91212,0.11813 2.85714,0 0.97412,-0.12176 1.90477,-0.47619 2.85715,-0.71429 1.90476,-0.47619 3.78257,-1.07735 5.71428,-1.42857 0.70277,-0.12777 1.42857,0 2.14286,0 3.09524,0 6.19048,0 9.28571,0 4.28572,0 8.57143,0 12.85715,0 1.19047,0 2.38095,0 3.57143,0 0.71428,0 1.44558,-0.15495 2.14285,0 1.46999,0.32667 2.83293,1.03236 4.28572,1.42857 1.17127,0.31944 2.38095,0.47619 3.57143,0.71429 1.19047,0.23809 2.37696,0.49711 3.57142,0.71428 0.79153,0.14392 6.79851,1.0757 7.85715,1.42858 1.01015,0.33671 1.82987,1.1484 2.85714,1.42857 1.62426,0.44298 3.33599,0.45828 5,0.71428 1.43144,0.22022 2.85714,0.47619 4.28571,0.71429 1.42858,0.23809 2.91176,0.2563 4.28572,0.71428 1.51523,0.50508 2.75915,1.67315 4.28571,2.14286 1.60914,0.49512 3.39087,0.21917 5,0.71429 1.52657,0.46971 2.78469,1.59703 4.28572,2.14285 4.18255,3.41644 9.56926,2.71357 14.28571,4.28572 1.21639,0.40546 2.38095,0.95238 3.57143,1.42857 2.38095,0.95238 4.74177,1.95673 7.14286,2.85714 0.70498,0.26437 1.42857,0.47619 2.14285,0.71429 1.19048,0.47619 2.38096,0.95238 3.57143,1.42857 1.19048,0.47619 2.42461,0.85516 3.57143,1.42857 0.76784,0.38392 1.37502,1.04466 2.14286,1.42857 3.14916,1.57458 1.63909,-0.2015 5.71428,1.42857 1.28903,0.51561 2.32968,1.52199 3.57143,2.14286 1.14682,0.57341 2.39976,0.90783 3.57143,1.42857 2.92223,1.29877 3.17109,1.8799 6.42857,2.85715 2.32571,0.69771 4.78725,0.83967 7.14286,1.42857 1.34637,0.33659 4.87158,1.76832 5.71429,2.14285 0.97302,0.43246 1.82414,1.17033 2.85714,1.42858 0.92394,0.23098 1.91433,-0.13469 2.85714,0 0.74536,0.10648 1.42857,0.47619 2.14286,0.71428 0.95238,0 1.90949,-0.0948 2.85714,0 1.44109,0.14411 2.8463,0.55435 4.28572,0.71429 0.67261,0.0747 6.06437,0.052 6.42857,0 0.74535,-0.10648 1.41241,-0.53168 2.14285,-0.71429 1.17781,-0.29445 2.48555,-0.17134 3.57143,-0.71428 0.90351,-0.45176 1.28625,-1.60748 2.14286,-2.14286 2.17458,-1.35911 4.9012,-1.61178 7.14286,-2.85714 0.86107,-0.47838 6.04566,-4.70219 6.42857,-5 2.12765,-1.65484 4.42365,-3.19557 6.42857,-5 1.2514,-1.12626 2.27806,-2.49363 3.57143,-3.57143 1.57345,-1.31121 3.36146,-2.34253 5,-3.57143 1.21964,-0.91473 2.40023,-1.88115 3.57143,-2.85714 1.68634,-1.40529 3.38185,-2.80241 5,-4.28572 1.24106,-1.13764 2.20985,-2.58119 3.57143,-3.57143 1.2917,-0.93942 2.994,-1.20343 4.28571,-2.14285 1.36158,-0.99024 2.32003,-2.44517 3.57143,-3.57143 1.13319,-1.01987 2.43824,-1.83727 3.57143,-2.85715 0.0846,-0.0761 7.11047,-7.11899 7.14285,-7.14285 3.1902,-2.35067 6.72956,-4.1909 10,-6.42857 1.25823,-0.86089 2.32247,-1.98287 3.57143,-2.85715 1.13736,-0.79615 2.38096,-1.42857 3.57143,-2.14285 3.09524,-2.38096 6.11997,-4.85649 9.28572,-7.14286 1.12548,-0.81285 2.43407,-1.34671 3.57142,-2.14286 1.24897,-0.87427 2.30293,-2.01147 3.57143,-2.85714 0.88597,-0.59064 1.99069,-0.80967 2.85715,-1.42857 4.16666,-2.97619 0.39682,-1.19048 3.57142,-3.57143 3.45949,-2.59461 -0.0419,0.75616 2.14286,-1.42857"
       id="path3089"
       style="fill:none;stroke:#000000;stroke-width:1px;stroke-linecap:butt;stroke-linejoin:miter;stroke-opacity:1" />
  </g>
</svg>
